<svg width="128" height="128" viewBox="0 0 128 128" xmlns="http://www.w3.org/2000/svg">
  <defs>
    <linearGradient id="docGradient" x1="0%" y1="0%" x2="100%" y2="100%">
      <stop offset="0%" style="stop-color:#4A90E2;stop-opacity:1" />
      <stop offset="100%" style="stop-color:#357ABD;stop-opacity:1" />
    </linearGradient>
    <linearGradient id="checkGradient" x1="0%" y1="0%" x2="100%" y2="100%">
      <stop offset="0%" style="stop-color:#5CB85C;stop-opacity:1" />
      <stop offset="100%" style="stop-color:#4CAF50;stop-opacity:1" />
    </linearGradient>
  </defs>

  <!-- Background circle -->
  <circle cx="64" cy="64" r="60" fill="#F8F9FA" stroke="#E1E8ED" stroke-width="2"/>

  <!-- Document/Paper -->
  <g id="document">
    <!-- Main document body -->
    <rect x="32" y="24" width="56" height="72" rx="4" fill="url(#docGradient)" stroke="#2C5F8D" stroke-width="2"/>

    <!-- Folded corner -->
    <path d="M 76 24 L 88 24 L 88 36 Z" fill="#357ABD" stroke="#2C5F8D" stroke-width="1.5"/>
    <path d="M 88 24 L 88 36 L 76 36 Z" fill="#2C5F8D" opacity="0.3"/>

    <!-- Code/Rule lines -->
    <line x1="40" y1="40" x2="70" y2="40" stroke="#FFFFFF" stroke-width="2.5" opacity="0.8"/>
    <line x1="40" y1="48" x2="75" y2="48" stroke="#FFFFFF" stroke-width="2.5" opacity="0.8"/>
    <line x1="40" y1="56" x2="65" y2="56" stroke="#FFFFFF" stroke-width="2.5" opacity="0.8"/>

    <line x1="40" y1="68" x2="72" y2="68" stroke="#FFFFFF" stroke-width="2.5" opacity="0.6"/>
    <line x1="40" y1="76" x2="68" y2="76" stroke="#FFFFFF" stroke-width="2.5" opacity="0.6"/>
    <line x1="40" y1="84" x2="74" y2="84" stroke="#FFFFFF" stroke-width="2.5" opacity="0.6"/>
  </g>

  <!-- Checkmark badge -->
  <g id="checkmark">
    <!-- Badge circle background -->
    <circle cx="90" cy="90" r="22" fill="url(#checkGradient)" stroke="#FFFFFF" stroke-width="3"/>
    <circle cx="90" cy="90" r="22" fill="none" stroke="#3D8B40" stroke-width="1.5"/>

    <!-- Checkmark symbol -->
    <path d="M 78 90 L 86 98 L 102 78"
          fill="none"
          stroke="#FFFFFF"
          stroke-width="5"
          stroke-linecap="round"
          stroke-linejoin="round"/>
  </g>

  <!-- Small accent dots (representing rules/checks) -->
  <circle cx="44" cy="64" r="2" fill="#5CB85C" opacity="0.7"/>
  <circle cx="44" cy="72" r="2" fill="#5CB85C" opacity="0.7"/>
  <circle cx="44" cy="80" r="2" fill="#5CB85C" opacity="0.7"/>
</svg>
